<svg width="22" height="22" viewBox="0 0 22 22" fill="none" xmlns="http://www.w3.org/2000/svg">
    <path d="M8.25 2.74996V0.916626H13.75V2.74996H8.25ZM10.0833 12.8333H11.9167V7.33329H10.0833V12.8333ZM11 20.1666C9.86944 20.1666 8.80367 19.9491 7.80267 19.514C6.80228 19.0782 5.92778 18.4861 5.17917 17.7375C4.43056 16.9888 3.83839 16.1143 3.40267 15.114C2.96756 14.113 2.75 13.0472 2.75 11.9166C2.75 10.7861 2.96756 9.72029 3.40267 8.71929C3.83839 7.7189 4.43056 6.8444 5.17917 6.09579C5.92778 5.34718 6.80228 4.75532 7.80267 4.32021C8.80367 3.88449 9.86944 3.66663 11 3.66663C11.9472 3.66663 12.8563 3.8194 13.7271 4.12496C14.5979 4.43052 15.4153 4.87357 16.1792 5.45413L17.4625 4.17079L18.7458 5.45413L17.4625 6.73746C18.0431 7.50135 18.4861 8.31871 18.7917 9.18954C19.0972 10.0604 19.25 10.9694 19.25 11.9166C19.25 13.0472 19.0324 14.113 18.5973 15.114C18.1616 16.1143 17.5694 16.9888 16.8208 17.7375C16.0722 18.4861 15.1977 19.0782 14.1973 19.514C13.1963 19.9491 12.1306 20.1666 11 20.1666ZM11 18.3333C12.7722 18.3333 14.2847 17.7069 15.5375 16.4541C16.7903 15.2013 17.4167 13.6888 17.4167 11.9166C17.4167 10.1444 16.7903 8.6319 15.5375 7.37913C14.2847 6.12635 12.7722 5.49996 11 5.49996C9.22778 5.49996 7.71528 6.12635 6.4625 7.37913C5.20972 8.6319 4.58333 10.1444 4.58333 11.9166C4.58333 13.6888 5.20972 15.2013 6.4625 16.4541C7.71528 17.7069 9.22778 18.3333 11 18.3333Z" fill="#F2F2F2"/>
</svg>
