<svg width="110" height="110" viewBox="0 0 110 110" fill="none" xmlns="http://www.w3.org/2000/svg">
    <rect width="110" height="110" rx="55" fill="#162023"/>
    <path d="M37.8437 50.6821V47.7121L46.6727 35.0761H51.0737V47.3881H53.4497V50.6821H51.0737V54.5161H47.2937V50.6821H37.8437ZM47.5367 39.1261L42.0017 47.3881H47.5367V39.1261Z" fill="#F2F2F2"/>
    <path opacity="0.75" d="M61.921 40.2701L58.359 54.7261H57.189L60.738 40.2701H61.921Z" fill="#F2F2F2"/>
    <path opacity="0.75" d="M70.299 46.1441H65.736V49.1081C65.9353 48.8308 66.23 48.6054 66.62 48.4321C67.01 48.2501 67.4303 48.1591 67.881 48.1591C68.6003 48.1591 69.1853 48.3108 69.636 48.6141C70.0867 48.9088 70.4073 49.2944 70.598 49.7711C70.7973 50.2391 70.897 50.7374 70.897 51.2661C70.897 51.8901 70.78 52.4491 70.546 52.9431C70.312 53.4371 69.9523 53.8271 69.467 54.1131C68.9903 54.3991 68.3967 54.5421 67.686 54.5421C66.776 54.5421 66.0393 54.3081 65.476 53.8401C64.9127 53.3721 64.5703 52.7481 64.449 51.9681H65.606C65.7187 52.4621 65.957 52.8478 66.321 53.1251C66.685 53.4024 67.1443 53.5411 67.699 53.5411C68.3837 53.5411 68.8993 53.3374 69.246 52.9301C69.5927 52.5141 69.766 51.9681 69.766 51.2921C69.766 50.6161 69.5927 50.0961 69.246 49.7321C68.8993 49.3594 68.388 49.1731 67.712 49.1731C67.2527 49.1731 66.8497 49.2858 66.503 49.5111C66.165 49.7278 65.918 50.0268 65.762 50.4081H64.644V45.1041H70.299V46.1441Z" fill="#F2F2F2"/>
    <path opacity="0.75" d="M30.088 65.9078L26.128 75.5798H25L26.296 72.4118L23.644 65.9078H24.856L26.92 71.2358L28.96 65.9078H30.088ZM34.0537 72.5918C33.4377 72.5918 32.8777 72.4518 32.3737 72.1718C31.8777 71.8918 31.4857 71.4958 31.1977 70.9838C30.9177 70.4638 30.7777 69.8638 30.7777 69.1838C30.7777 68.5118 30.9217 67.9198 31.2097 67.4078C31.5057 66.8878 31.9057 66.4918 32.4097 66.2198C32.9137 65.9398 33.4777 65.7998 34.1017 65.7998C34.7257 65.7998 35.2897 65.9398 35.7937 66.2198C36.2977 66.4918 36.6937 66.8838 36.9817 67.3958C37.2777 67.9078 37.4257 68.5038 37.4257 69.1838C37.4257 69.8638 37.2737 70.4638 36.9697 70.9838C36.6737 71.4958 36.2697 71.8918 35.7577 72.1718C35.2457 72.4518 34.6777 72.5918 34.0537 72.5918ZM34.0537 71.6318C34.4457 71.6318 34.8137 71.5398 35.1577 71.3558C35.5017 71.1718 35.7777 70.8958 35.9857 70.5278C36.2017 70.1598 36.3097 69.7118 36.3097 69.1838C36.3097 68.6558 36.2057 68.2078 35.9977 67.8398C35.7897 67.4718 35.5177 67.1998 35.1817 67.0238C34.8457 66.8398 34.4817 66.7478 34.0897 66.7478C33.6897 66.7478 33.3217 66.8398 32.9857 67.0238C32.6577 67.1998 32.3937 67.4718 32.1937 67.8398C31.9937 68.2078 31.8937 68.6558 31.8937 69.1838C31.8937 69.7198 31.9897 70.1718 32.1817 70.5398C32.3817 70.9078 32.6457 71.1838 32.9737 71.3678C33.3017 71.5438 33.6617 71.6318 34.0537 71.6318ZM44.6935 65.9078V72.4838H43.6015V71.5118C43.3935 71.8478 43.1015 72.1118 42.7255 72.3038C42.3575 72.4878 41.9495 72.5798 41.5015 72.5798C40.9895 72.5798 40.5295 72.4758 40.1215 72.2678C39.7135 72.0518 39.3895 71.7318 39.1495 71.3078C38.9175 70.8838 38.8015 70.3678 38.8015 69.7598V65.9078H39.8815V69.6158C39.8815 70.2638 40.0455 70.7638 40.3735 71.1158C40.7015 71.4598 41.1495 71.6318 41.7175 71.6318C42.3015 71.6318 42.7615 71.4518 43.0975 71.0918C43.4335 70.7318 43.6015 70.2078 43.6015 69.5198V65.9078H44.6935ZM47.6293 66.9758C47.8213 66.5998 48.0933 66.3078 48.4453 66.0998C48.8053 65.8918 49.2413 65.7878 49.7533 65.7878V66.9158H49.4653C48.2413 66.9158 47.6293 67.5798 47.6293 68.9078V72.4838H46.5373V65.9078H47.6293V66.9758ZM56.5411 72.5918C56.0371 72.5918 55.5851 72.5078 55.1851 72.3398C54.7851 72.1638 54.4691 71.9238 54.2371 71.6198C54.0051 71.3078 53.8771 70.9518 53.8531 70.5518H54.9811C55.0131 70.8798 55.1651 71.1478 55.4371 71.3558C55.7171 71.5638 56.0811 71.6678 56.5291 71.6678C56.9451 71.6678 57.2731 71.5758 57.5131 71.3918C57.7531 71.2078 57.8731 70.9758 57.8731 70.6958C57.8731 70.4078 57.7451 70.1958 57.4891 70.0598C57.2331 69.9158 56.8371 69.7758 56.3011 69.6398C55.8131 69.5118 55.4131 69.3838 55.1011 69.2558C54.7971 69.1198 54.5331 68.9238 54.3091 68.6678C54.0931 68.4038 53.9851 68.0598 53.9851 67.6358C53.9851 67.2998 54.0851 66.9918 54.2851 66.7118C54.4851 66.4318 54.7691 66.2118 55.1371 66.0518C55.5051 65.8838 55.9251 65.7998 56.3971 65.7998C57.1251 65.7998 57.7131 65.9838 58.1611 66.3518C58.6091 66.7198 58.8491 67.2238 58.8811 67.8638H57.7891C57.7651 67.5198 57.6251 67.2438 57.3691 67.0358C57.1211 66.8278 56.7851 66.7238 56.3611 66.7238C55.9691 66.7238 55.6571 66.8078 55.4251 66.9758C55.1931 67.1438 55.0771 67.3638 55.0771 67.6358C55.0771 67.8518 55.1451 68.0318 55.2811 68.1758C55.4251 68.3118 55.6011 68.4238 55.8091 68.5118C56.0251 68.5918 56.3211 68.6838 56.6971 68.7878C57.1691 68.9158 57.5531 69.0438 57.8491 69.1718C58.1451 69.2918 58.3971 69.4758 58.6051 69.7238C58.8211 69.9718 58.9331 70.2958 58.9411 70.6958C58.9411 71.0558 58.8411 71.3798 58.6411 71.6678C58.4411 71.9558 58.1571 72.1838 57.7891 72.3518C57.4291 72.5118 57.0131 72.5918 56.5411 72.5918ZM60.0746 69.1838C60.0746 68.5038 60.2106 67.9118 60.4826 67.4078C60.7546 66.8958 61.1306 66.4998 61.6106 66.2198C62.0986 65.9398 62.6546 65.7998 63.2786 65.7998C64.0866 65.7998 64.7506 65.9958 65.2706 66.3878C65.7986 66.7798 66.1466 67.3238 66.3146 68.0198H65.1386C65.0266 67.6198 64.8066 67.3038 64.4786 67.0718C64.1586 66.8398 63.7586 66.7238 63.2786 66.7238C62.6546 66.7238 62.1506 66.9398 61.7666 67.3718C61.3826 67.7958 61.1906 68.3998 61.1906 69.1838C61.1906 69.9758 61.3826 70.5878 61.7666 71.0198C62.1506 71.4518 62.6546 71.6678 63.2786 71.6678C63.7586 71.6678 64.1586 71.5558 64.4786 71.3318C64.7986 71.1078 65.0186 70.7878 65.1386 70.3718H66.3146C66.1386 71.0438 65.7866 71.5838 65.2586 71.9918C64.7306 72.3918 64.0706 72.5918 63.2786 72.5918C62.6546 72.5918 62.0986 72.4518 61.6106 72.1718C61.1306 71.8918 60.7546 71.4958 60.4826 70.9838C60.2106 70.4718 60.0746 69.8718 60.0746 69.1838ZM70.6397 72.5918C70.0237 72.5918 69.4637 72.4518 68.9597 72.1718C68.4637 71.8918 68.0717 71.4958 67.7837 70.9838C67.5037 70.4638 67.3637 69.8638 67.3637 69.1838C67.3637 68.5118 67.5077 67.9198 67.7957 67.4078C68.0917 66.8878 68.4917 66.4918 68.9957 66.2198C69.4997 65.9398 70.0637 65.7998 70.6877 65.7998C71.3117 65.7998 71.8757 65.9398 72.3797 66.2198C72.8837 66.4918 73.2797 66.8838 73.5677 67.3958C73.8637 67.9078 74.0117 68.5038 74.0117 69.1838C74.0117 69.8638 73.8597 70.4638 73.5557 70.9838C73.2597 71.4958 72.8557 71.8918 72.3437 72.1718C71.8317 72.4518 71.2637 72.5918 70.6397 72.5918ZM70.6397 71.6318C71.0317 71.6318 71.3997 71.5398 71.7437 71.3558C72.0877 71.1718 72.3637 70.8958 72.5717 70.5278C72.7877 70.1598 72.8957 69.7118 72.8957 69.1838C72.8957 68.6558 72.7917 68.2078 72.5837 67.8398C72.3757 67.4718 72.1037 67.1998 71.7677 67.0238C71.4317 66.8398 71.0677 66.7478 70.6757 66.7478C70.2757 66.7478 69.9077 66.8398 69.5717 67.0238C69.2437 67.1998 68.9797 67.4718 68.7797 67.8398C68.5797 68.2078 68.4797 68.6558 68.4797 69.1838C68.4797 69.7198 68.5757 70.1718 68.7677 70.5398C68.9677 70.9078 69.2317 71.1838 69.5597 71.3678C69.8877 71.5438 70.2477 71.6318 70.6397 71.6318ZM76.5394 66.9758C76.7314 66.5998 77.0034 66.3078 77.3554 66.0998C77.7154 65.8918 78.1514 65.7878 78.6634 65.7878V66.9158H78.3754C77.1514 66.9158 76.5394 67.5798 76.5394 68.9078V72.4838H75.4474V65.9078H76.5394V66.9758ZM85.924 68.9438C85.924 69.1518 85.912 69.3718 85.888 69.6038H80.632C80.672 70.2518 80.892 70.7598 81.292 71.1278C81.7 71.4878 82.192 71.6678 82.768 71.6678C83.24 71.6678 83.632 71.5598 83.944 71.3438C84.264 71.1198 84.488 70.8238 84.616 70.4558H85.792C85.616 71.0878 85.264 71.6038 84.736 72.0038C84.208 72.3958 83.552 72.5918 82.768 72.5918C82.144 72.5918 81.584 72.4518 81.088 72.1718C80.6 71.8918 80.216 71.4958 79.936 70.9838C79.656 70.4638 79.516 69.8638 79.516 69.1838C79.516 68.5038 79.652 67.9078 79.924 67.3958C80.196 66.8838 80.576 66.4918 81.064 66.2198C81.56 65.9398 82.128 65.7998 82.768 65.7998C83.392 65.7998 83.944 65.9358 84.424 66.2078C84.904 66.4798 85.272 66.8558 85.528 67.3358C85.792 67.8078 85.924 68.3438 85.924 68.9438ZM84.796 68.7158C84.796 68.2998 84.704 67.9438 84.52 67.6478C84.336 67.3438 84.084 67.1158 83.764 66.9638C83.452 66.8038 83.104 66.7238 82.72 66.7238C82.168 66.7238 81.696 66.8998 81.304 67.2518C80.92 67.6038 80.7 68.0918 80.644 68.7158H84.796Z" fill="#F2F2F2"/>
    <circle opacity="0.2" cx="55" cy="55" r="51" stroke="#0E81B4" stroke-width="8"/>
    <mask id="path-7-inside-1_11_45" fill="white">
        <path d="M105.985 55C108.202 55 110.015 56.8001 109.854 59.0116C109.108 69.2044 105.534 79.0173 99.4959 87.3282C92.6689 96.7248 83.0423 103.719 71.9959 107.308C60.9495 110.897 49.0504 110.897 38.0041 107.308C26.9577 103.719 17.3311 96.7248 10.5041 87.3282C3.67702 77.9316 -1.0154e-06 66.6149 0 55C1.0154e-06 43.3851 3.67702 32.0684 10.5041 22.6718C17.3311 13.2752 26.9577 6.28108 38.0041 2.69189C47.7741 -0.482589 58.2112 -0.84938 68.1354 1.59152C70.2886 2.12112 71.4405 4.40149 70.7552 6.51039C70.07 8.61928 67.8072 9.75539 65.6475 9.25271C57.3434 7.31987 48.6422 7.67859 40.4855 10.3289C31.0519 13.394 22.8308 19.367 17.0005 27.3917C11.1702 35.4164 8.03 45.0809 8.03 55C8.03 64.9191 11.1702 74.5836 17.0005 82.6083C22.8308 90.633 31.0519 96.606 40.4855 99.6711C49.9191 102.736 60.0809 102.736 69.5145 99.6711C78.9481 96.606 87.1692 90.633 92.9995 82.6083C98.0407 75.6697 101.071 67.5053 101.799 59.0103C101.988 56.801 103.768 55 105.985 55Z"/>
    </mask>
    <path d="M105.985 55C108.202 55 110.015 56.8001 109.854 59.0116C109.108 69.2044 105.534 79.0173 99.4959 87.3282C92.6689 96.7248 83.0423 103.719 71.9959 107.308C60.9495 110.897 49.0504 110.897 38.0041 107.308C26.9577 103.719 17.3311 96.7248 10.5041 87.3282C3.67702 77.9316 -1.0154e-06 66.6149 0 55C1.0154e-06 43.3851 3.67702 32.0684 10.5041 22.6718C17.3311 13.2752 26.9577 6.28108 38.0041 2.69189C47.7741 -0.482589 58.2112 -0.84938 68.1354 1.59152C70.2886 2.12112 71.4405 4.40149 70.7552 6.51039C70.07 8.61928 67.8072 9.75539 65.6475 9.25271C57.3434 7.31987 48.6422 7.67859 40.4855 10.3289C31.0519 13.394 22.8308 19.367 17.0005 27.3917C11.1702 35.4164 8.03 45.0809 8.03 55C8.03 64.9191 11.1702 74.5836 17.0005 82.6083C22.8308 90.633 31.0519 96.606 40.4855 99.6711C49.9191 102.736 60.0809 102.736 69.5145 99.6711C78.9481 96.606 87.1692 90.633 92.9995 82.6083C98.0407 75.6697 101.071 67.5053 101.799 59.0103C101.988 56.801 103.768 55 105.985 55Z" stroke="#0E81B4" stroke-width="9.5" mask="url(#path-7-inside-1_11_45)"/>
</svg>
