<svg width="32" height="32" viewBox="0 0 32 32" fill="none" xmlns="http://www.w3.org/2000/svg">
    <path opacity="0.5" d="M7.61905 12.6667H9.52381V18.381H7.61905V12.6667ZM11.4286 6H5.71429V7.90476H11.4286V6ZM15.2667 12.0857C16.4818 13.6013 17.1436 15.486 17.1429 17.4286C17.1429 22.1619 13.3333 26 8.57143 26C6.29814 26 4.11797 25.0969 2.51051 23.4895C0.903059 21.882 0 19.7019 0 17.4286C0 15.1553 0.903059 12.9751 2.51051 11.3677C4.11797 9.7602 6.29814 8.85714 8.57143 8.85714C10.5905 8.85714 12.4476 9.5619 13.9238 10.7619L15.2762 9.39048C15.7619 9.80952 16.1905 10.2476 16.619 10.7333L15.2667 12.0857ZM15.2381 17.4286C15.2381 13.7429 12.2571 10.7619 8.57143 10.7619C4.88571 10.7619 1.90476 13.7429 1.90476 17.4286C1.90476 21.1143 4.88571 24.0952 8.57143 24.0952C12.2571 24.0952 15.2381 21.1143 15.2381 17.4286ZM19.0476 11.7143V17.4286H20.9524V11.7143H19.0476ZM19.0476 21.2381H20.9524V19.3333H19.0476V21.2381Z" fill="#F2F2F2"/>
    <path d="M7.61905 12.6667H9.52381V18.381H7.61905V12.6667ZM15.2667 12.0857C16.4818 13.6013 17.1436 15.4861 17.1429 17.4286C17.1429 22.1619 13.3333 26 8.57143 26C6.29814 26 4.11797 25.097 2.51051 23.4895C0.903058 21.8821 0 19.7019 0 17.4286C0 15.1553 0.903058 12.9751 2.51051 11.3677C4.11797 9.76024 6.29814 8.85718 8.57143 8.85718C10.5905 8.85718 12.4476 9.56194 13.9238 10.7619L15.2762 9.39051C15.7619 9.80956 16.1905 10.2477 16.619 10.7334L15.2667 12.0857ZM15.2381 17.4286C15.2381 13.7429 12.2571 10.7619 8.57143 10.7619C4.88571 10.7619 1.90476 13.7429 1.90476 17.4286C1.90476 21.1143 4.88571 24.0953 8.57143 24.0953C12.2571 24.0953 15.2381 21.1143 15.2381 17.4286Z" fill="#F2F2F2"/>
</svg>
