<svg width="32" height="32" viewBox="0 0 32 32" fill="none" xmlns="http://www.w3.org/2000/svg">
    <path opacity="0.5" d="M5.71429 7.90476V6H11.4286V7.90476H5.71429ZM7.61905 18.381H9.52381V12.6667H7.61905V18.381ZM8.57143 26C7.39682 26 6.28952 25.774 5.24952 25.3219C4.21016 24.8692 3.30159 24.254 2.52381 23.4762C1.74603 22.6984 1.13079 21.7898 0.678095 20.7505C0.226032 19.7105 0 18.6032 0 17.4286C0 16.254 0.226032 15.1467 0.678095 14.1067C1.13079 13.0673 1.74603 12.1587 2.52381 11.381C3.30159 10.6032 4.21016 9.98825 5.24952 9.53619C6.28952 9.08349 7.39682 8.85714 8.57143 8.85714C9.55556 8.85714 10.5 9.01587 11.4048 9.33333C12.3095 9.65079 13.1587 10.1111 13.9524 10.7143L15.2857 9.38095L16.619 10.7143L15.2857 12.0476C15.8889 12.8413 16.3492 13.6905 16.6667 14.5952C16.9841 15.5 17.1429 16.4444 17.1429 17.4286C17.1429 18.6032 16.9168 19.7105 16.4648 20.7505C16.0121 21.7898 15.3968 22.6984 14.619 23.4762C13.8413 24.254 12.9327 24.8692 11.8933 25.3219C10.8533 25.774 9.74603 26 8.57143 26ZM8.57143 24.0952C10.4127 24.0952 11.9841 23.4444 13.2857 22.1429C14.5873 20.8413 15.2381 19.2698 15.2381 17.4286C15.2381 15.5873 14.5873 14.0159 13.2857 12.7143C11.9841 11.4127 10.4127 10.7619 8.57143 10.7619C6.73016 10.7619 5.15873 11.4127 3.85714 12.7143C2.55556 14.0159 1.90476 15.5873 1.90476 17.4286C1.90476 19.2698 2.55556 20.8413 3.85714 22.1429C5.15873 23.4444 6.73016 24.0952 8.57143 24.0952Z" fill="#F2F2F2"/>
    <path d="M7.61905 18.381H9.52381V12.6667H7.61905V18.381ZM8.57143 26C7.39682 26 6.28952 25.774 5.24952 25.3219C4.21016 24.8692 3.30159 24.254 2.52381 23.4762C1.74603 22.6984 1.13079 21.7899 0.678095 20.7505C0.226032 19.7105 0 18.6032 0 17.4286C0 16.254 0.226032 15.1467 0.678095 14.1067C1.13079 13.0673 1.74603 12.1588 2.52381 11.381C3.30159 10.6032 4.21016 9.98829 5.24952 9.53623C6.28952 9.08353 7.39682 8.85718 8.57143 8.85718C9.55556 8.85718 10.5 9.01591 11.4048 9.33337C12.3095 9.65083 13.1587 10.1111 13.9524 10.7143L15.2857 9.38099L16.619 10.7143L15.2857 12.0477C15.8889 12.8413 16.3492 13.6905 16.6667 14.5953C16.9841 15.5 17.1429 16.4445 17.1429 17.4286C17.1429 18.6032 16.9168 19.7105 16.4648 20.7505C16.0121 21.7899 15.3968 22.6984 14.619 23.4762C13.8413 24.254 12.9327 24.8692 11.8933 25.3219C10.8533 25.774 9.74603 26 8.57143 26ZM8.57143 24.0953C10.4127 24.0953 11.9841 23.4445 13.2857 22.1429C14.5873 20.8413 15.2381 19.2699 15.2381 17.4286C15.2381 15.5873 14.5873 14.0159 13.2857 12.7143C11.9841 11.4127 10.4127 10.7619 8.57143 10.7619C6.73016 10.7619 5.15873 11.4127 3.85714 12.7143C2.55556 14.0159 1.90476 15.5873 1.90476 17.4286C1.90476 19.2699 2.55556 20.8413 3.85714 22.1429C5.15873 23.4445 6.73016 24.0953 8.57143 24.0953Z" fill="#F2F2F2"/>
</svg>
